<svg xmlns="http://www.w3.org/2000/svg" fill="none" viewBox="0 0 200 200" stroke-width=".75"><g id="Marketing-Marketing-target-01"><g id="color 2"><path id="Vector" fill="#eed8d8" d="M135.264 94.129C126.756 95.4067 118.326 97.1574 110.013 99.373L109.963 98.298L88.98 101.292C86.047 104.586 84.704 113.157 88.661 118.819L85.826 133.288L64.736 126.068C59.929 130.989 58.336 136.233 57.991 143.13L87.916 154.454C89.3312 154.992 90.8443 155.224 92.3558 155.136C93.8672 155.047 95.3428 154.639 96.6853 153.939C98.0279 153.239 99.207 152.263 100.145 151.074C101.083 149.886 101.759 148.512 102.128 147.044L107.372 126.41L97.868 124C106.86 125.192 120.726 120.337 127.873 117.536C127.455 124.699 127.113 134.294 126.524 144.896C131.773 146.888 137.5 147.252 142.959 145.941C144.593 133.135 146.208 118.695 146.74 104.441C146.796 102.97 146.527 101.504 145.953 100.148C145.379 98.7925 144.514 97.5796 143.419 96.5955C142.324 95.6114 141.025 94.8804 139.616 94.4541C138.207 94.0278 136.721 93.9169 135.264 94.129Z"></path><path id="Vector_2" fill="#eed8d8" d="M158.957 67.491L159.223 70.512L162.358 68.764L158.957 67.491Z"></path></g><g id="color 1"><path id="Vector_3" fill="#5e5e5e" d="M152.288 63.729C149.628 57.229 145.6 49.935 142.465 43.513C140.785 40.2032 139.319 36.7888 138.076 33.291C136.887 29.8218 136.003 26.2552 135.435 22.632C135.418 22.4784 135.371 22.3298 135.296 22.1949C135.22 22.06 135.119 21.9416 134.997 21.8468C134.875 21.752 134.735 21.6827 134.586 21.6429C134.437 21.6032 134.281 21.5939 134.128 21.6155C133.975 21.6372 133.828 21.6894 133.696 21.769C133.563 21.8487 133.448 21.9541 133.358 22.079C133.267 22.204 133.202 22.3459 133.167 22.4964C133.133 22.6469 133.128 22.8029 133.155 22.955C133.506 24.8395 133.956 26.7041 134.504 28.541C136.127 33.9893 138.378 39.2305 141.211 44.159C144.611 50.467 148.906 57.573 151.811 63.938C151.839 64.0012 151.89 64.0509 151.955 64.076C152.019 64.1012 152.091 64.0997 152.154 64.072C152.217 64.0443 152.267 63.9926 152.292 63.9282C152.317 63.8639 152.316 63.7922 152.288 63.729Z"></path><path id="Vector_4" fill="#d33b2e" d="M88.98 101.292L86.738 92.077C83.7486 95.3648 82.1287 99.6708 82.2099 104.114C82.2912 108.557 84.0674 112.801 87.175 115.977C85.161 110.545 86.624 103.933 88.98 101.292Z"></path><path id="Vector_5" fill="#d33b2e" d="M116.017 97.872C114.003 98.347 112.008 98.86 110.017 99.392C109.865 96.276 109.751 91.773 109.694 89.592C112.603 91.6364 114.811 94.5277 116.017 97.872Z"></path><path id="Vector_6" fill="#d33b2e" d="M98.347 70.094L95.782 67.928C96.4799 68.0845 97.1954 68.1483 97.91 68.118C97.992 68.7891 98.1383 69.4508 98.347 70.094Z"></path><path id="Vector_7" fill="#d33b2e" d="M88.714 90.652L87.726 96.143L86.434 90.823L88.714 90.652Z"></path><path id="Vector_8" fill="#d33b2e" d="M96.4089 123.75L107.391 126.41L108.132 123.465C104.237 124.149 99.9999 124.529 96.4089 123.75Z"></path><path id="Vector_9" fill="#d33b2e" d="M116.701 84.363L109.595 85.636L109.538 83.204L116.701 84.363Z"></path><path id="Vector_10" fill="#5e5e5e" d="M153.96 75.908C153.352 82.862 151.395 91.678 149.951 98.651C149.191 102.299 148.336 106.365 147.785 110.07C147.194 114.005 147.258 118.012 147.975 121.926C148.004 122.053 148.059 122.173 148.136 122.277C148.213 122.382 148.311 122.47 148.423 122.536C148.536 122.602 148.661 122.643 148.79 122.659C148.919 122.674 149.05 122.663 149.175 122.626C149.424 122.555 149.634 122.39 149.762 122.166C149.89 121.941 149.925 121.676 149.859 121.426C149.081 117.755 148.914 113.98 149.365 110.254C149.802 106.554 150.524 102.521 151.17 98.873C152.4 91.83 154.093 83 154.492 75.946C154.49 75.8795 154.464 75.8162 154.418 75.7682C154.372 75.7201 154.31 75.6909 154.243 75.6862C154.177 75.6815 154.111 75.7015 154.059 75.7425C154.007 75.7835 153.971 75.8425 153.96 75.908Z"></path><path id="Vector_11" fill="#d33b2e" d="M100.171 60.556C99.962 60.062 99.6941 59.55 99.4111 59.017C95.2721 51.207 92.267 57.877 92.742 61.145C92.761 61.734 92.4551 61.909 91.4691 61.297C89.4311 60.032 88.28 63.384 92.02 64.812C92.198 64.9349 92.3368 65.1064 92.42 65.306C93.142 67.548 93.3321 69.006 92.9521 70.398C92.6521 67.398 89.3641 65.342 86.9101 61.698C84.1591 57.611 91.0101 50.431 94.6241 50.184C98.2381 49.937 98.423 54.685 100.171 60.556Z"></path><path id="Vector_12" fill="#d33b2e" d="M140.109 146.474C136.494 146.953 132.821 146.715 129.298 145.774C129.07 147.427 128.861 148.966 128.747 150.657C132.667 154.95 137.521 161.902 145.733 168.137C143.812 158.256 140.372 151.607 140.109 146.474Z"></path><path id="Vector_13" fill="#d33b2e" d="M58.048 126.885C52.548 129.367 44.579 131.702 35.856 137.734C39.692 138.541 55.292 138.463 58.371 139.102C58.8309 135.395 60.2089 131.862 62.38 128.823C60.879 128.12 59.625 127.531 58.048 126.885Z"></path><path id="Vector_14" fill="#d33b2e" d="M50.828 58.96L41.575 51.949L35.97 35.134L45.185 42.012L50.828 58.96Z"></path><path id="Vector_15" fill="#d33b2e" d="M32.018 44.9L14.291 44.406L5 37.509L22.86 38.079L32.018 44.9Z"></path><path id="Vector_16" fill="#d33b2e" d="M83.9449 81.513C83.9676 81.7624 83.8903 82.0107 83.7299 82.2031C83.5696 82.3955 83.3394 82.5163 83.0899 82.539C82.8405 82.5617 82.5923 82.4843 82.3999 82.324C82.2074 82.1636 82.0866 81.9334 82.0639 81.684C82.0413 81.4346 82.1186 81.1863 82.2789 80.9939C82.4393 80.8015 82.6695 80.6807 82.9189 80.658C83.1684 80.6353 83.4166 80.7127 83.609 80.873C83.8014 81.0333 83.9223 81.2636 83.9449 81.513Z"></path><path id="Vector_17" fill="#d33b2e" d="M140.812 69.182C140.835 69.4314 140.757 69.6797 140.597 69.8721C140.437 70.0645 140.206 70.1853 139.957 70.208C139.708 70.2307 139.459 70.1533 139.267 69.993C139.075 69.8326 138.954 69.6024 138.931 69.353C138.92 69.2295 138.933 69.105 138.97 68.9866C139.007 68.8682 139.067 68.7582 139.146 68.6629C139.225 68.5676 139.323 68.4889 139.433 68.4313C139.542 68.3737 139.662 68.3382 139.786 68.327C139.91 68.3158 140.034 68.329 140.152 68.3659C140.271 68.4028 140.381 68.4626 140.476 68.542C140.571 68.6214 140.65 68.7188 140.708 68.8286C140.765 68.9384 140.801 69.0585 140.812 69.182Z"></path><path id="Vector_18" fill="#d33b2e" d="M169.103 138.741V147.215L160.591 150.103L178.926 154.568L169.103 138.741Z"></path></g><g id="outlines"><path id="Vector_19" stroke="#5e5e5e" stroke-linecap="round" stroke-linejoin="round" d="M99.677 73.552C103.306 82.767 103.819 89.911 104.085 99.183"></path><path id="Vector_20" stroke="#5e5e5e" stroke-linecap="round" stroke-linejoin="round" d="M135.682 67.719C137.763 71.6331 138.636 76.0766 138.19 80.487"></path><path id="Vector_21" stroke="#5e5e5e" stroke-linecap="round" stroke-linejoin="round" d="M41.936 130.951C35.3393 116.93 34.0735 100.988 38.3753 86.1018C42.6771 71.216 52.252 58.4059 65.3108 50.0655C78.3695 41.7252 94.0184 38.4252 109.333 40.7825C124.648 43.1397 138.58 50.9927 148.526 62.874"></path><path id="Vector_22" stroke="#5e5e5e" stroke-linecap="round" stroke-linejoin="round" d="M142.655 67.966C143.643 67.681 144.618 66.904 145.581 64.603C146.193 63.142 146.455 63.124 149.039 62.836C152.079 62.497 151.816 62.686 152.497 67.871C152.664 69.145 150.497 69.676 149.381 65.743C150.274 68.764 149.248 71.101 147.272 72.143"></path><path id="Vector_23" stroke="#5e5e5e" stroke-linecap="round" stroke-linejoin="round" d="M87.175 116C84.0674 112.824 82.2912 108.58 82.2099 104.137C82.1287 99.6938 83.7486 95.3878 86.738 92.1"></path><path id="Vector_24" stroke="#5e5e5e" stroke-linecap="round" stroke-linejoin="round" d="M109.69 89.588C112.586 91.6481 114.792 94.5358 116.017 97.872"></path><path id="Vector_25" stroke="#5e5e5e" stroke-linecap="round" stroke-linejoin="round" d="M131.749 158.9C124.312 163.227 116.078 166.005 107.54 167.068C99.002 168.131 90.3374 167.457 82.0668 165.086C73.7963 162.715 66.0906 158.696 59.4129 153.27C54.2537 149.079 49.7905 144.115 46.176 138.564"></path><path id="Vector_26" stroke="#5e5e5e" stroke-linecap="round" stroke-linejoin="round" d="M156.6 75.148C163.633 89.1737 165.257 105.298 161.16 120.444C157.815 132.812 150.847 143.821 141.246 152.108"></path><path id="Vector_27" stroke="#5e5e5e" stroke-linecap="round" stroke-linejoin="round" d="M65.9709 126.486C62.6792 121.585 60.4915 116.028 59.5591 110.198C58.6267 104.369 58.972 98.406 60.5709 92.723"></path><path id="Vector_28" stroke="#5e5e5e" stroke-linecap="round" stroke-linejoin="round" d="M127.094 133.687C120.506 139.751 112.093 143.459 103.173 144.232C103.066 144.248 102.958 144.254 102.85 144.251"></path><path id="Vector_29" stroke="#5e5e5e" stroke-linecap="round" stroke-linejoin="round" d="M133.459 81.361C136.082 85.3042 137.992 89.6773 139.102 94.281"></path><path id="Vector_30" stroke="#5e5e5e" stroke-linecap="round" stroke-linejoin="round" d="M101.121 63.235C108.691 63.5108 116.031 65.9071 122.306 70.151"></path><path id="Vector_31" stroke="#5e5e5e" stroke-linecap="round" stroke-linejoin="round" d="M73.286 72.925C77.8985 68.9678 83.3491 66.1093 89.227 64.565"></path><path id="Vector_32" stroke="#5e5e5e" stroke-linecap="round" stroke-linejoin="round" d="M22.908 38.091L70.702 73.609"></path><path id="Vector_33" stroke="#5e5e5e" stroke-linecap="round" stroke-linejoin="round" d="M154.492 136.271L178.926 154.568"></path><path id="Vector_34" stroke="#5e5e5e" stroke-linecap="round" stroke-linejoin="round" d="M98.347 70.094L95.782 67.928C96.4787 68.097 97.1957 68.1677 97.912 68.138"></path><path id="Vector_35" stroke="#5e5e5e" stroke-linecap="round" stroke-linejoin="round" d="M100.171 60.556C102.983 66.864 100.154 68.043 97.912 68.138C98.0321 69.1418 98.3095 70.1205 98.734 71.038C99.0461 71.8305 99.6066 72.5004 100.332 72.9475C101.056 73.3946 101.907 73.5948 102.755 73.518C106.945 73.143 141.933 66.602 141.933 66.602C144.039 70.738 145.065 74.987 144.311 79.407L109.6 85.636C109.6 85.636 109.71 90.443 109.961 98.328"></path><path id="Vector_36" stroke="#5e5e5e" stroke-linecap="round" stroke-linejoin="round" d="M86.434 90.823L88.714 90.652L87.726 96.143"></path><path id="Vector_37" stroke="#5e5e5e" stroke-linecap="round" stroke-linejoin="round" d="M64.147 90.5L85.826 83.831C86.5548 79.0058 85.3459 74.0883 82.463 70.151L60.081 76.915C55.481 78.415 52.869 81.265 53.241 85.484C53.3306 86.5237 53.6246 87.5356 54.106 88.4615C54.5874 89.3875 55.2467 90.2093 56.0463 90.88C56.8458 91.5507 57.7698 92.0571 58.7654 92.37C59.7609 92.683 60.8085 92.7965 61.848 92.704L86.434 90.823L89 101.368"></path><path id="Vector_38" stroke="#5e5e5e" stroke-linecap="round" stroke-linejoin="round" d="M130.818 116.359C130.058 116.682 129.089 117.059 127.873 117.537"></path><path id="Vector_39" stroke="#5e5e5e" stroke-linecap="round" stroke-linejoin="round" d="M88.9999 101.368C86.2259 104.484 84.6459 113.093 88.6579 118.829C92.6119 124.483 99.7689 124.736 106.622 123.71C114.3 122.561 122.706 119.558 127.874 117.537C127.456 124.7 127.114 134.295 126.525 144.897C131.774 146.889 137.501 147.253 142.96 145.942C144.594 133.136 146.174 118.676 146.722 104.427C146.779 102.958 146.511 101.495 145.938 100.142C145.366 98.7887 144.501 97.5782 143.407 96.5968C142.314 95.6154 141.017 94.8871 139.609 94.4639C138.202 94.0406 136.719 93.9328 135.265 94.148C126.757 95.4232 118.326 97.1739 110.014 99.392L109.957 98.328L88.9999 101.368Z"></path><path id="Vector_40" stroke="#5e5e5e" stroke-linecap="round" stroke-linejoin="round" d="M110.013 99.392C108.683 99.753 107.372 100.114 106.061 100.492"></path><path id="Vector_41" stroke="#5e5e5e" stroke-linecap="round" stroke-linejoin="round" d="M88.657 118.829L85.807 133.288L64.736 126.068C59.929 130.989 58.336 136.233 57.991 143.13L87.916 154.473C89.3312 155.011 90.8443 155.243 92.3558 155.155C93.8672 155.066 95.3428 154.658 96.6853 153.958C98.0279 153.258 99.207 152.282 100.145 151.093C101.083 149.905 101.759 148.531 102.128 147.063L108.119 123.463"></path><path id="Vector_42" stroke="#5e5e5e" stroke-linecap="round" stroke-linejoin="round" d="M96.3521 123.731L107.372 126.41"></path><path id="Vector_43" stroke="#5e5e5e" stroke-linecap="round" stroke-linejoin="round" d="M116.701 84.363L109.595 85.636L109.538 83.204L116.701 84.363Z"></path><path id="Vector_44" stroke="#5e5e5e" stroke-linecap="round" stroke-linejoin="round" d="M95.174 75.908L159.089 69.0719"></path><path id="Vector_45" stroke="#5e5e5e" stroke-linecap="round" stroke-linejoin="round" d="M158.957 67.491L159.223 70.512L162.358 68.764L158.957 67.491Z"></path><path id="Vector_46" stroke="#5e5e5e" stroke-linecap="round" stroke-linejoin="round" d="M91.4691 61.278C89.4311 60.013 88.28 63.365 92.02 64.793C92.198 64.9159 92.3368 65.0874 92.42 65.287C93.142 67.529 93.3321 68.987 92.9521 70.379C92.6521 67.379 89.3641 65.323 86.9101 61.679C84.1591 57.592 91.0101 50.402 94.6241 50.165C98.2381 49.928 98.405 54.687 100.172 60.558C99.963 60.064 99.6951 59.552 99.4121 59.019C95.3831 51.419 92.43 57.535 92.712 60.881C92.775 61.631 92.6581 62.016 91.4691 61.278Z"></path><path id="Vector_47" stroke="#5e5e5e" stroke-linecap="round" stroke-linejoin="round" d="M129.3 145.771C132.823 146.712 136.496 146.95 140.111 146.471C140.282 149.815 141.649 153.33 142.638 156.522C144.438 162.322 146.009 167.631 146.538 173.622C142.645 170.687 139.066 167.357 135.86 163.685C133.029 160.493 130.768 157.567 128.66 155.325C128.608 152.128 128.822 148.932 129.3 145.771V145.771Z"></path><path id="Vector_48" stroke="#5e5e5e" stroke-linecap="round" stroke-linejoin="round" d="M128.766 150.673C130.766 152.858 132.906 155.615 135.566 158.596C138.641 162.106 142.052 165.307 145.75 168.153"></path><path id="Vector_49" stroke="#5e5e5e" stroke-linecap="round" stroke-linejoin="round" d="M31.486 136.974C35.4893 134.193 39.7677 131.831 44.254 129.925C48.171 128.225 51.645 126.98 54.454 125.688C57.1763 126.514 59.8263 127.563 62.377 128.823C60.2073 131.862 58.8304 135.394 58.371 139.1C55.35 138.473 51.971 138.643 48.947 138.587C43.744 138.492 36.575 138.164 31.486 136.974Z"></path><path id="Vector_50" stroke="#5e5e5e" stroke-linecap="round" stroke-linejoin="round" d="M91.944 70.512L136.974 33.025"></path><path id="Vector_51" stroke="#5e5e5e" stroke-linecap="round" stroke-linejoin="round" d="M149.514 104.256L91.7939 81.015"></path><path id="Vector_52" stroke="#5e5e5e" stroke-linecap="round" stroke-linejoin="round" d="M26.432 27.952L32.018 44.9L14.291 44.406"></path><path id="Vector_53" stroke="#5e5e5e" stroke-linecap="round" stroke-linejoin="round" d="M23.8101 51.436L41.5561 52.025L35.9701 35.134"></path><path id="Vector_54" stroke="#5e5e5e" stroke-linecap="round" stroke-linejoin="round" d="M116.91 174.005L117.841 184.968"></path><path id="Vector_55" stroke="#5e5e5e" stroke-linecap="round" stroke-linejoin="round" d="M122.857 179.002L111.894 179.952"></path><path id="Vector_56" stroke="#5e5e5e" stroke-linecap="round" stroke-linejoin="round" d="M19.5 93.141C19.5489 93.6972 19.4318 94.2554 19.1634 94.7451C18.895 95.2347 18.4875 95.6337 17.9923 95.8917C17.4972 96.1498 16.9366 96.2551 16.3816 96.1945C15.8265 96.134 15.3019 95.9101 14.874 95.5514C14.4462 95.1926 14.1343 94.7151 13.9779 94.1791C13.8215 93.6431 13.8275 93.0727 13.9953 92.5402C14.163 92.0076 14.4849 91.5367 14.9202 91.1871C15.3556 90.8375 15.8848 90.6248 16.441 90.576C16.8106 90.542 17.1833 90.5815 17.5375 90.6922C17.8917 90.803 18.2205 90.9827 18.5049 91.2212C18.7893 91.4597 19.0237 91.7521 19.1945 92.0816C19.3653 92.4111 19.4691 92.7712 19.5 93.141V93.141Z"></path><path id="Vector_57" stroke="#5e5e5e" stroke-linecap="round" stroke-linejoin="round" d="M74.0081 17.863L77.8651 22.404L81.2661 15.032"></path><path id="Vector_58" stroke="#5e5e5e" stroke-linecap="round" stroke-linejoin="round" d="M186.887 90.861L187.21 94.699"></path><path id="Vector_59" stroke="#5e5e5e" stroke-linecap="round" stroke-linejoin="round" d="M183.904 98.651L180.066 98.974"></path><path id="Vector_60" stroke="#5e5e5e" stroke-linecap="round" stroke-linejoin="round" d="M195 97.682L191.162 98.005"></path><path id="Vector_61" stroke="#5e5e5e" stroke-linecap="round" stroke-linejoin="round" d="M188.179 105.795L187.856 101.957"></path><path id="Vector_62" stroke="#5e5e5e" stroke-linecap="round" stroke-linejoin="round" d="M191.162 98.005C190.2 98.0873 189.245 97.786 188.505 97.1669C187.765 96.5477 187.299 95.661 187.21 94.7C187.292 95.6618 186.991 96.617 186.372 97.3574C185.752 98.0977 184.865 98.5631 183.904 98.652C184.866 98.5698 185.821 98.8712 186.561 99.4905C187.302 100.11 187.767 100.997 187.856 101.958C187.774 100.996 188.075 100.041 188.694 99.3C189.314 98.5594 190.201 98.0939 191.162 98.005V98.005Z"></path><path id="Vector_63" stroke="#5e5e5e" stroke-linecap="round" stroke-linejoin="round" d="M100.456 73C99.7974 73.5341 99.0355 73.9262 98.218 74.1518C97.4006 74.3775 96.5454 74.4316 95.7061 74.311"></path><path id="Vector_64" stroke="#5e5e5e" stroke-linecap="round" stroke-linejoin="round" d="M75.965 72.127C79.1383 75.6803 80.3353 80.2277 79.556 85.769"></path><path id="Vector_65" stroke="#5e5e5e" stroke-linecap="round" stroke-linejoin="round" d="M178.926 154.568L160.591 150.103L169.103 147.215V138.741L178.926 154.568Z"></path><path id="Vector_66" stroke="#5e5e5e" stroke-linecap="round" stroke-linejoin="round" d="M86.016 81.456C88.904 81.266 94.3 80.81 94.416 80.791C95.879 80.677 95.765 78.302 93.979 78.302C93.979 78.302 94.473 78.267 94.701 78.245C96.201 78.097 96.032 75.651 94.188 75.68C94.088 75.68 93.808 75.661 93.808 75.661C94.108 75.642 94.378 75.623 94.663 75.585C96.117 75.385 95.981 73.104 94.392 72.948C94.21 72.933 94.0269 72.9381 93.846 72.963C93.998 72.944 94.169 72.909 94.321 72.887C95.77 72.673 95.499 70.187 93.751 70.341C93.105 70.398 92.611 70.441 91.951 70.512C91.78 69.03 91.305 68.967 89.462 68.992C87.162 69.023 86.916 69.03 86.251 70.265C85.7982 71.3057 85.0282 72.1768 84.051 72.754"></path><path id="Vector_67" stroke="#5e5e5e" stroke-linecap="round" stroke-linejoin="round" d="M151.851 72.83C149.685 73.038 149.173 70.463 151.243 70.113C152.783 69.853 153.883 69.727 155.119 69.562C157.189 69.286 157.648 72.042 155.974 72.393C154.949 72.608 153.846 72.639 151.851 72.83Z"></path><path id="Vector_68" stroke="#5e5e5e" stroke-linecap="round" stroke-linejoin="round" d="M151.889 63.862C152.63 63.71 153.181 63.615 153.903 63.482C155.86 63.121 156.411 65.838 154.834 66.275C154.018 66.4811 153.188 66.6261 152.351 66.709"></path><path id="Vector_69" stroke="#5e5e5e" stroke-linecap="round" stroke-linejoin="round" d="M151.889 75.851C149.78 76 149.343 73.493 151.357 73.21C152.857 72.999 153.922 72.91 155.119 72.792C157.119 72.602 157.519 75.253 155.879 75.547C154.892 75.724 153.808 75.715 151.889 75.851Z"></path><path id="Vector_70" stroke="#5e5e5e" stroke-linecap="round" stroke-linejoin="round" d="M152.361 66.786C153.152 66.673 153.832 66.616 154.606 66.486C156.696 66.163 157.229 68.942 155.537 69.355C154.512 69.605 153.39 69.655 151.376 69.906C151.08 69.9658 150.772 69.9281 150.499 69.7986C150.226 69.669 150.002 69.4546 149.861 69.1874C149.72 68.9201 149.669 68.6143 149.716 68.3158C149.763 68.0173 149.906 67.7419 150.122 67.531"></path><path id="Vector_71" stroke="#5e5e5e" stroke-linecap="round" stroke-linejoin="round" d="M144.536 77.542C148.051 76.896 153.029 76.326 155.461 75.623"></path><path id="Vector_72" stroke="#5e5e5e" stroke-dasharray="3.2 5.29" stroke-linecap="round" stroke-linejoin="round" d="M95.478 100.418L96.295 108.702"></path><path id="Vector_73" stroke="#5e5e5e" stroke-dasharray="3.2 5.29" stroke-linecap="round" stroke-linejoin="round" d="M96.3 108.7C96.3603 109.313 96.5477 109.907 96.8504 110.443C97.1531 110.979 97.5643 111.446 98.0579 111.815C98.5514 112.183 99.1164 112.445 99.7167 112.582C100.317 112.72 100.939 112.731 101.544 112.614"></path><path id="Vector_74" stroke="#5e5e5e" stroke-dasharray="3.2 5.29" stroke-linecap="round" stroke-linejoin="round" d="M101.539 112.616L131.445 106.859"></path><path id="Vector_75" stroke="#5e5e5e" stroke-dasharray="3.2 5.29" stroke-linecap="round" stroke-linejoin="round" d="M133.288 106.859C133.941 107.005 134.553 107.298 135.076 107.714C135.6 108.131 136.022 108.662 136.311 109.265C136.6 109.869 136.748 110.53 136.744 111.2"></path><path id="Vector_76" stroke="#5e5e5e" stroke-dasharray="3.2 5.29" stroke-linecap="round" stroke-linejoin="round" d="M136.708 111.419L135.017 146.664"></path><path id="Vector_77" stroke="#5e5e5e" stroke-dasharray="3.2 5.29" stroke-linecap="round" stroke-linejoin="round" d="M97.986 124.016L94.547 139.197"></path><path id="Vector_78" stroke="#5e5e5e" stroke-dasharray="3.2 5.29" stroke-linecap="round" stroke-linejoin="round" d="M94.547 139.2C94.3779 139.952 94.0546 140.66 93.5974 141.28C93.1402 141.901 92.5592 142.419 91.8912 142.803C91.2232 143.187 90.4828 143.428 89.7167 143.511C88.9507 143.594 88.1758 143.517 87.441 143.285"></path><path id="Vector_79" stroke="#5e5e5e" stroke-dasharray="3.2 5.29" stroke-linecap="round" stroke-linejoin="round" d="M87.46 143.282L59.454 134.523"></path><path id="Vector_80" stroke="#5e5e5e" stroke-linecap="round" stroke-linejoin="round" d="M45.185 42.012L17.255 21.131L22.917 38.079L5 37.509L33.006 58.276L50.828 58.96L45.185 42.012Z"></path><path id="Vector_81" stroke="#5e5e5e" stroke-linecap="round" stroke-linejoin="round" d="M58.048 126.923C55.312 128.158 51.966 129.368 48.225 130.989C43.8962 132.822 39.7633 135.087 35.889 137.749"></path></g></g></svg>