<svg xmlns="http://www.w3.org/2000/svg" fill="none" viewBox="0 0 200 200" stroke-width=".75"><g id="Work-Overworked-employee-01"><g id="color 2"><path id="Vector" fill="#eed8d8" d="M116.612 101.946L106.812 99.609L64.321 55.716C57.7511 58.9942 52.3368 64.1976 48.8 70.632L66.68 90.051L46.121 85.151C42.055 91.459 40.307 98.091 41.221 105.121L93.36 119.011C97.725 123.744 99.821 126.423 103.981 128.811C108.256 131.262 115.212 133.984 122.907 131.97C123.872 131.839 119.728 110.9 116.612 101.946Z"></path><path id="Vector_2" fill="#eed8d8" d="M141.37 31.433L135.993 20.166C135.609 19.3574 135.069 18.6323 134.405 18.0323C133.74 17.4323 132.964 16.9691 132.121 16.6692C131.277 16.3692 130.383 16.2384 129.489 16.2842C128.595 16.33 127.719 16.5514 126.91 16.936L121.362 19.576L132.591 43.157L138.14 40.516C138.95 40.1334 139.676 39.5945 140.278 38.9304C140.879 38.2662 141.343 37.4898 141.643 36.6458C141.943 35.8017 142.073 34.9067 142.027 34.0122C141.98 33.1176 141.757 32.2411 141.37 31.433ZM134.587 32.858C134.587 32.9084 134.567 32.9567 134.531 32.9923C134.496 33.028 134.447 33.048 134.397 33.048C134.347 33.048 134.298 33.028 134.263 32.9923C134.227 32.9567 134.207 32.9084 134.207 32.858V28.6L131.376 29.854C131.347 29.8644 131.316 29.868 131.286 29.8646C131.256 29.8611 131.226 29.8507 131.2 29.8342C131.175 29.8177 131.153 29.7955 131.137 29.7692C131.121 29.743 131.112 29.7135 131.109 29.683V25.144C131.109 25.0936 131.129 25.0453 131.165 25.0096C131.2 24.974 131.249 24.954 131.299 24.954C131.349 24.954 131.398 24.974 131.433 25.0096C131.469 25.0453 131.489 25.0936 131.489 25.144V29.4L134.321 28.146C134.349 28.1345 134.379 28.1303 134.409 28.1336C134.439 28.1369 134.467 28.1477 134.492 28.165C134.519 28.1808 134.542 28.2029 134.558 28.2294C134.575 28.2558 134.585 28.2859 134.587 28.317V32.858Z"></path></g><g id="color 1"><path id="Vector_3" fill="#d33b2d" d="M156.723 82.66C156.834 83.1209 156.846 83.5998 156.761 84.066C158.075 83.4814 159.272 82.6639 160.295 81.653C159.135 82.0907 157.94 82.4276 156.723 82.66Z"></path><path id="Vector_4" fill="#d33b2d" d="M119.272 99.172C117.125 93.966 112.716 85.187 108.859 86.194C106.332 86.859 105.23 91.666 105.61 98.394L106.788 99.61L116.593 101.947C116.225 100.744 115.715 99.5899 115.073 98.508C116.4 98.754 117.9 98.963 119.272 99.172Z"></path><path id="Vector_5" fill="#d33b2d" d="M47.3341 37.95C45.7001 40.858 45.0541 51.308 43.3821 56.932C42.7336 59.0027 42.3131 61.138 42.1281 63.3C43.0257 64.7812 44.1695 66.0984 45.5101 67.195C47.2509 62.8648 49.7614 58.8856 52.9201 55.45C50.9781 50.451 51.4271 44.772 47.3341 37.95Z"></path><path id="Vector_6" fill="#d33b2d" d="M37.264 90.184C32.845 86.906 30.439 82.067 23.203 78.366C23.374 81.691 28.409 90.887 29.986 96.53C30.5355 98.6257 31.3194 100.653 32.323 102.573C33.8737 103.345 35.5447 103.846 37.264 104.055C36.434 99.4686 36.434 94.7704 37.264 90.184Z"></path><path id="Vector_7" fill="#d33b2d" d="M141.275 82.622C140.686 88.17 143.631 89.291 146.595 84.636C144.733 84.2284 142.94 83.5499 141.275 82.622Z"></path><path id="Vector_8" fill="#d33b2d" d="M145.132 73.349C146.082 73.805 147.64 74.185 148.02 73.919L148.59 72.532C147.678 71.43 146.291 72.1 145.132 73.349Z"></path><path id="Vector_9" fill="#d33b2d" d="M164.1 70.024C163.265 66.932 160.965 63.241 155.683 58.662C154.493 63.2016 153.573 67.8076 152.928 72.456C155.425 71.8357 157.993 71.5419 160.566 71.582C160.794 71.088 161.273 71.612 161.877 73.349C161.897 73.406 161.953 73.558 162.01 73.749C162.132 73.7083 162.262 73.6953 162.39 73.711C162.333 72.932 162.24 72.077 162.124 71.146C161.564 66.661 162.873 66.038 164.062 70.538C164.137 70.823 164.29 71.602 164.462 72.552C164.444 71.6978 164.323 70.8489 164.1 70.024Z"></path><path id="Vector_10" fill="#d33b2d" d="M161.549 102.326L160.599 108.843C160.599 108.843 163.43 105.233 164.418 103.543L161.549 102.326Z"></path><path id="Vector_11" fill="#d33b2d" d="M61.984 150.132L81.593 153.951L63.219 137.592L43.61 133.772L61.984 150.132Z"></path><path id="Vector_12" fill="#d33b2d" d="M81.5545 153.951L99.8335 141.962L78.4005 139.359L70.7805 144.356L81.5545 153.951Z"></path></g><g id="outlines"><path id="Vector_13" stroke="#5e5e5e" stroke-linejoin="round" d="M61.984 150.132L81.593 153.951L63.219 137.592L43.61 133.772L61.984 150.132Z"></path><path id="Vector_14" stroke="#5e5e5e" stroke-linejoin="round" d="M81.5545 153.951L99.8335 141.962L78.4005 139.359L70.7805 144.356L81.5545 153.951Z"></path><path id="Vector_15" stroke="#5e5e5e" stroke-linecap="round" stroke-linejoin="round" d="M78.458 70.309C85.5726 67.4539 93.2775 66.382 100.901 67.1867C108.525 67.9915 115.836 70.6484 122.198 74.926"></path><path id="Vector_16" stroke="#5e5e5e" stroke-linecap="round" stroke-linejoin="round" d="M57.025 87.752C58.0711 86.1932 59.2063 84.696 60.425 83.268"></path><path id="Vector_17" stroke="#5e5e5e" stroke-linecap="round" stroke-linejoin="round" d="M49.576 107.345C49.2861 109.48 49.1401 111.632 49.139 113.786C49.1235 121.521 51.0328 129.138 54.6928 135.949"></path><path id="Vector_18" stroke="#5e5e5e" stroke-linecap="round" stroke-linejoin="round" d="M141.731 124.063C140.007 131.737 136.38 138.853 131.184 144.757C125.987 150.661 119.388 155.162 111.996 157.846C104.603 160.53 96.6532 161.31 88.8795 160.115C81.3052 158.95 74.1351 155.946 67.9955 151.37"></path><path id="Vector_19" stroke="#5e5e5e" stroke-linecap="round" stroke-linejoin="round" d="M142.339 24.536C145.246 22.712 149.123 21.798 152.429 22.978C157.902 24.932 160.663 31.492 159.307 36.943C158.04 42.037 154.007 46.464 151.269 50.814C146.654 58.15 144.769 63.602 147.488 71.981"></path><path id="Vector_20" stroke="#5e5e5e" stroke-linecap="round" stroke-linejoin="round" d="M137.779 23.89L140.116 28.773L141.769 27.973C142.217 27.7553 142.561 27.3706 142.728 26.9016C142.895 26.4325 142.871 25.9167 142.662 25.465L141.962 23.983C141.744 23.5352 141.36 23.1908 140.891 23.0238C140.422 22.8568 139.906 22.8806 139.454 23.09L137.779 23.89Z"></path><path id="Vector_21" stroke="#5e5e5e" stroke-linecap="round" stroke-linejoin="round" d="M132.61 43.157L121.381 19.576L110.246 24.878L121.476 48.458L132.61 43.157Z"></path><path id="Vector_22" stroke="#5e5e5e" stroke-linecap="round" stroke-linejoin="round" d="M141.389 31.433L136.012 20.147C135.628 19.3384 135.088 18.6133 134.424 18.0134C133.759 17.4134 132.983 16.9502 132.14 16.6502C131.296 16.3502 130.402 16.2194 129.508 16.2652C128.614 16.311 127.737 16.5325 126.929 16.917L121.381 19.576L132.61 43.157L138.159 40.516C138.968 40.1318 139.692 39.592 140.292 38.9276C140.892 38.2631 141.355 37.487 141.655 36.6436C141.955 35.8001 142.086 34.9058 142.04 34.0118C141.995 33.1177 141.773 32.2415 141.389 31.433V31.433Z"></path><path id="Vector 2" fill="#5e5e5e" d="M131.656 25.1562C131.656 24.9491 131.488 24.7812 131.281 24.7812C131.074 24.7812 130.906 24.9491 130.906 25.1562H131.656ZM131.281 29.5938H130.906C130.906 29.7184 130.968 29.8349 131.072 29.9046C131.175 29.9744 131.306 29.9881 131.422 29.9414L131.281 29.5938ZM134.375 28.3438H134.75C134.75 28.2191 134.688 28.1026 134.585 28.0329C134.481 27.9631 134.35 27.9494 134.235 27.9961L134.375 28.3438ZM134 32.875C134 33.0821 134.168 33.25 134.375 33.25C134.582 33.25 134.75 33.0821 134.75 32.875H134ZM130.906 25.1562V29.5938H131.656V25.1562H130.906ZM131.422 29.9414L134.515 28.6914L134.235 27.9961L131.141 29.2461L131.422 29.9414ZM134 28.3438V32.875H134.75V28.3438H134Z"></path><path id="Vector_23" stroke="#5e5e5e" stroke-linecap="round" stroke-linejoin="round" d="M121.476 48.458L110.246 24.878L99.1121 30.179L110.341 53.759L121.476 48.458Z"></path><path id="Vector_24" stroke="#5e5e5e" stroke-linecap="round" stroke-linejoin="round" d="M90.675 41.751C90.2906 40.9425 90.0693 40.0662 90.0236 39.1721C89.978 38.278 90.1089 37.3837 90.409 36.5402C90.709 35.6968 91.1723 34.9207 91.7723 34.2563C92.3723 33.5919 93.0973 33.0522 93.906 32.668L99.112 30.179L110.341 53.759L105.135 56.248C104.327 56.6325 103.45 56.854 102.556 56.8998C101.662 56.9455 100.768 56.8147 99.9247 56.5147C99.0813 56.2148 98.3053 55.7516 97.641 55.1516C96.9766 54.5516 96.437 53.8266 96.053 53.018L90.675 41.751Z"></path><path id="Vector_25" stroke="#5e5e5e" stroke-linecap="round" stroke-linejoin="round" d="M93.355 119.009L41.2 105.119C40.288 98.089 42.036 91.457 46.1 85.149L66.678 90.049"></path><path id="Vector_26" stroke="#5e5e5e" stroke-linecap="round" stroke-linejoin="round" d="M116.593 101.946L106.807 99.609"></path><path id="Vector_27" stroke="#5e5e5e" stroke-linecap="round" stroke-linejoin="round" d="M121.97 125.013C118.679 125.637 115.28 125.341 112.146 124.158C108.079 122.698 104.446 120.236 101.582 117L53.661 63.8"></path><path id="Vector_28" stroke="#5e5e5e" stroke-linecap="round" stroke-linejoin="round" d="M41.254 97.595L83.664 108.501"></path><path id="Vector_29" stroke="#5e5e5e" stroke-linecap="round" stroke-linejoin="round" d="M152.923 72.513C151.668 82.527 154.044 84.142 160.276 81.653"></path><path id="Vector_30" stroke="#5e5e5e" stroke-linecap="round" stroke-linejoin="round" d="M114.5 107.57L64.308 55.723C57.7437 59.0012 52.3341 64.2018 48.8 70.632L97.8421 123.892C99.6153 125.838 101.679 127.498 103.96 128.813C108.244 131.271 115.203 133.986 122.905 131.972"></path><path id="Vector_31" stroke="#5e5e5e" stroke-linecap="round" stroke-linejoin="round" d="M150.775 84.693C157.388 88.093 156.818 83.002 156.818 83.002L156.778 82.648"></path><path id="Vector_32" stroke="#5e5e5e" stroke-linecap="round" stroke-linejoin="round" d="M156.476 84.826C155.526 89.196 137.342 100.502 110.607 86.384"></path><path id="Vector_33" stroke="#5e5e5e" stroke-linecap="round" stroke-linejoin="round" d="M105.61 98.393C105.23 91.666 106.331 86.857 108.859 86.193C112.715 85.182 117.125 93.964 119.272 99.171C117.999 98.905 116.441 98.677 115.072 98.506"></path><path id="Vector_34" stroke="#5e5e5e" stroke-linecap="round" stroke-linejoin="round" d="M47.334 37.95C46.821 37.076 46.384 36.58 46.061 36.62C44.045 36.872 43.536 48.307 41.824 54.044C41.1988 55.9841 40.8212 57.9953 40.7 60.03C40.9497 61.2054 41.4355 62.3179 42.1279 63.3C42.2997 61.1369 42.7205 59.0007 43.382 56.934C45.053 51.308 45.7 40.858 47.334 37.95Z"></path><path id="Vector_35" stroke="#5e5e5e" stroke-linecap="round" stroke-linejoin="round" d="M52.9201 55.45C51.6281 52.125 51.4441 49.065 50.6021 45.912C49.853 43.1308 48.7549 40.4555 47.3341 37.95C45.7001 40.858 45.0441 51.305 43.3821 56.932C42.7321 59.0023 42.3116 61.1378 42.1281 63.3C43.0257 64.7812 44.1695 66.0984 45.5101 67.195C47.2506 62.8647 49.7611 58.8855 52.9201 55.45V55.45Z"></path><path id="Vector_36" stroke="#5e5e5e" stroke-linecap="round" stroke-linejoin="round" d="M45.51 67.193L48.797 70.632"></path><path id="Vector_37" stroke="#5e5e5e" stroke-linecap="round" stroke-linejoin="round" d="M52.92 55.45L57.272 60.334"></path><path id="Vector_38" stroke="#5e5e5e" stroke-linecap="round" stroke-linejoin="round" d="M23.2 78.366C22.307 77.909 21.661 77.72 21.414 77.929C19.858 79.242 25.5 89.163 27.133 94.915C27.647 96.8869 28.3999 98.7887 29.375 100.578C30.2093 101.443 31.2114 102.128 32.32 102.592C31.3161 100.672 30.5322 98.6448 29.983 96.549C28.419 90.884 23.374 81.691 23.2 78.366Z"></path><path id="Vector_39" stroke="#5e5e5e" stroke-linecap="round" stroke-linejoin="round" d="M37.264 90.184C34.395 88.056 32.588 85.569 30.214 83.363C28.096 81.4089 25.7405 79.729 23.203 78.363C23.374 81.688 28.403 90.886 29.986 96.527C30.5346 98.623 31.3186 100.65 32.323 102.57C33.8737 103.342 35.5447 103.843 37.264 104.052C36.4343 99.4666 36.4343 94.7694 37.264 90.184V90.184Z"></path><path id="Vector_40" stroke="#5e5e5e" stroke-linecap="round" stroke-linejoin="round" d="M37.283 104.055L41.197 105.119"></path><path id="Vector_41" stroke="#5e5e5e" stroke-linecap="round" stroke-linejoin="round" d="M37.264 90.184L42.755 91.761"></path><path id="Vector_42" stroke="#5e5e5e" stroke-linecap="round" stroke-linejoin="round" d="M170.232 126.647C170.792 127.857 170.98 129.206 170.774 130.523C170.567 131.84 169.974 133.066 169.071 134.047C168.167 135.027 166.993 135.717 165.697 136.03C164.401 136.343 163.041 136.265 161.79 135.805C160.539 135.346 159.451 134.525 158.666 133.448C157.881 132.37 157.433 131.084 157.379 129.752C157.324 128.42 157.666 127.102 158.361 125.964C159.056 124.826 160.073 123.92 161.283 123.36C162.086 122.987 162.955 122.776 163.84 122.739C164.725 122.703 165.608 122.841 166.44 123.146C167.271 123.452 168.034 123.918 168.685 124.519C169.335 125.12 169.861 125.843 170.232 126.647V126.647Z"></path><path id="Vector_43" stroke="#5e5e5e" stroke-linecap="round" stroke-linejoin="round" d="M162.195 125.317L164.114 129.478L168.199 127.597"></path><path id="Vector_44" stroke="#5e5e5e" stroke-linecap="round" stroke-linejoin="round" d="M148.59 72.532C148.415 72.3171 148.185 72.1531 147.925 72.057C146.225 71.438 143.631 74.432 142.168 78.689C140.705 82.946 140.916 86.871 142.643 87.467C143.785 87.861 145.284 86.688 146.614 84.636"></path><path id="Vector_45" stroke="#5e5e5e" stroke-linecap="round" stroke-linejoin="round" d="M147.925 72.057C143.063 70.923 138.262 69.5405 133.542 67.915C128.108 66.033 119.024 68.884 123.414 79.297C125.561 84.389 131.774 90.222 136.753 93.243"></path><path id="Vector_46" stroke="#5e5e5e" stroke-linecap="round" stroke-linejoin="round" d="M142.643 87.467L129.152 80.646"></path><path id="Vector_47" stroke="#5e5e5e" stroke-linecap="round" stroke-linejoin="round" d="M154.063 82.052C153.645 82.584 153.23 83.1 152.828 83.552C150.979 85.635 146.139 85.281 141.256 82.64"></path><path id="Vector_48" stroke="#5e5e5e" stroke-linecap="round" stroke-linejoin="round" d="M147.982 73.881C147.602 74.166 146.082 73.786 145.132 73.349"></path><path id="Vector_49" stroke="#5e5e5e" stroke-linecap="round" stroke-linejoin="round" d="M151.25 71.392C151.269 71.183 151.307 69.792 151.326 69.606C151.421 66.262 150.652 66.835 149.464 70.271C148.455 72.9976 147.301 75.6681 146.006 78.271"></path><path id="Vector_50" stroke="#5e5e5e" stroke-linecap="round" stroke-linejoin="round" d="M154.272 64.685C153.949 63.507 153.001 64.496 152.22 67.497C151.576 69.968 151.079 72.097 150.585 73.71"></path><path id="Vector_51" stroke="#5e5e5e" stroke-linecap="round" stroke-linejoin="round" d="M152.847 73.216C151.758 73.2415 150.699 73.5705 149.787 74.166"></path><path id="Vector_52" stroke="#5e5e5e" stroke-linecap="round" stroke-linejoin="round" d="M180.341 105.2L166.941 98.189C168.005 92.355 171.368 86.56 176.141 83.653C176.141 83.653 187.122 90.799 192.805 96.517C198.417 102.163 193.905 114.126 180.397 110.71C175.94 109.576 170.032 106.091 164.418 103.535C152.927 121.935 131.511 128.95 124.818 131.383C124.175 131.616 123.535 131.811 122.9 131.977C124.021 131.825 118.092 102.844 115.071 98.512C122.557 99.994 145.491 102.768 160.73 87.112"></path><path id="Vector_53" stroke="#5e5e5e" stroke-linecap="round" stroke-linejoin="round" d="M168.351 78.689C168.351 78.689 169.529 75.742 171.051 75.189C172.685 74.599 169.813 79.959 169.968 82.942C170.024 84.006 173.446 85.735 173.446 85.735"></path><path id="Vector_54" stroke="#5e5e5e" stroke-linecap="round" stroke-linejoin="round" d="M166.337 71.05C166.204 69.359 166.482 63.903 167.762 69.188C168.006 70.6086 168.164 72.0425 168.237 73.482C168.509 75.8774 168.464 78.2982 168.104 80.682"></path><path id="Vector_55" stroke="#5e5e5e" stroke-linecap="round" stroke-linejoin="round" d="M162.5 75.173C162.424 74.964 161.968 73.673 161.911 73.482C160.771 70.347 160.253 71.164 160.429 74.793C160.577 77.853 160.263 82.318 160.201 83.515C159.971 87.981 161.968 89.272 168.086 93.927"></path><path id="Vector_56" stroke="#5e5e5e" stroke-linecap="round" stroke-linejoin="round" d="M165.007 76.275C164.76 74.128 164.243 71.275 164.076 70.651C162.885 66.156 161.57 66.794 162.138 71.259C162.462 73.805 162.499 75.724 162.651 77.416"></path><path id="Vector_57" stroke="#5e5e5e" stroke-linecap="round" stroke-linejoin="round" d="M164.114 70.784C164.095 62.084 165.814 65.748 166.28 70.594C166.492 72.779 166.736 74.394 166.774 75.686"></path><path id="Vector_58" stroke="#5e5e5e" stroke-linecap="round" stroke-linejoin="round" d="M164.116 70.106C163.316 66.992 161.006 63.281 155.678 58.662C154.488 63.2015 153.568 67.8076 152.923 72.456C155.42 71.8356 157.988 71.5419 160.561 71.582"></path><path id="Vector_59" stroke="#5e5e5e" stroke-linecap="round" stroke-linejoin="round" d="M152.372 89.1C153.531 90.164 154.652 91.1 158.053 89.613"></path><path id="Vector_60" stroke="#5e5e5e" stroke-linecap="round" stroke-linejoin="round" d="M160.295 81.653C159.516 82.793 156.761 84.066 156.761 84.066"></path><path id="Vector_61" stroke="#5e5e5e" stroke-linecap="round" stroke-linejoin="round" d="M188.416 55.089C188.245 56.058 183.058 55.889 176.826 54.709C170.594 53.529 165.691 51.802 165.862 50.833C166.033 49.864 171.22 50.033 177.453 51.213C183.686 52.393 188.587 54.12 188.416 55.089Z"></path><path id="Vector_62" stroke="#5e5e5e" stroke-linecap="round" stroke-linejoin="round" d="M182.963 63.127C182.146 63.621 178.871 59.483 175.648 53.854C172.425 48.225 170.479 43.271 171.296 42.777C172.113 42.283 175.382 46.425 178.612 52.049C181.842 57.673 183.78 62.633 182.963 63.127Z"></path><path id="Vector_63" stroke="#5e5e5e" stroke-linecap="round" stroke-linejoin="round" d="M5 122.657L14.862 131.169L17.465 113.365"></path><path id="Vector_64" stroke="#5e5e5e" stroke-linecap="round" stroke-linejoin="round" d="M71.313 28.906C71.2999 29.3177 71.165 29.7162 70.9254 30.0512C70.6858 30.3862 70.3522 30.6425 69.9669 30.7879C69.5815 30.9333 69.1617 30.9611 68.7605 30.8678C68.3594 30.7745 67.9949 30.5644 67.7132 30.2639C67.4315 29.9635 67.2452 29.5862 67.178 29.1799C67.1107 28.7736 67.1655 28.3564 67.3353 27.9812C67.5052 27.606 67.7825 27.2896 68.1322 27.0721C68.482 26.8545 68.8883 26.7456 69.3 26.759C69.5731 26.7678 69.8419 26.8303 70.0909 26.943C70.3399 27.0556 70.5642 27.2162 70.7512 27.4156C70.9381 27.615 71.0839 27.8492 71.1803 28.1049C71.2767 28.3606 71.3218 28.6329 71.313 28.906V28.906Z"></path><path id="Vector_65" stroke="#5e5e5e" stroke-linecap="round" stroke-linejoin="round" d="M106.275 175.043L114.408 183.745"></path><path id="Vector_66" stroke="#5e5e5e" stroke-linecap="round" stroke-linejoin="round" d="M114.693 175.328L105.99 183.46"></path><path id="Vector_67" stroke="#5e5e5e" stroke-linecap="round" stroke-linejoin="round" d="M164.419 103.53C163.45 103.089 162.491 102.676 161.549 102.307L160.599 108.843"></path></g></g></svg>